<?xml version="1.0" standalone="no"?>
<!DOCTYPE svg PUBLIC "-//W3C//DTD SVG 20010904//EN"
 "http://www.w3.org/TR/2001/REC-SVG-20010904/DTD/svg10.dtd">
<svg version="1.0" xmlns="http://www.w3.org/2000/svg"
 width="773.000000pt" height="192.000000pt" viewBox="0 0 773.000000 192.000000"
 preserveAspectRatio="xMidYMid meet">

<g transform="translate(0.000000,192.000000) scale(0.100000,-0.100000)"
fill="#000000" stroke="none">
<path d="M785 1540 c-50 -49 -91 -93 -92 -97 -2 -5 44 -55 102 -113 l105 -105
95 95 c52 52 95 99 95 105 0 13 -192 205 -206 205 -5 0 -50 -40 -99 -90z"/>
<path d="M378 1133 l-257 -258 106 -108 106 -108 259 258 258 258 -107 107
c-59 60 -108 108 -108 108 0 0 -116 -116 -257 -257z"/>
<path d="M983 1190 c-92 -94 -169 -174 -171 -178 -1 -4 45 -54 103 -112 l105
-105 78 78 78 77 27 -28 26 -27 -159 -161 -158 -161 109 -109 109 -109 255
255 c140 140 254 258 255 261 0 8 -476 489 -484 489 -3 0 -81 -77 -173 -170z"/>
<path d="M6880 888 c-62 -183 -115 -339 -118 -346 -3 -10 5 -13 33 -10 l37 3
114 335 c63 184 114 338 114 342 0 5 -15 8 -34 8 l-33 0 -113 -332z"/>
<path d="M2110 875 l0 -255 45 0 45 0 0 105 0 105 115 0 115 0 0 40 0 40 -115
0 -115 0 0 75 0 75 125 0 125 0 0 35 0 35 -170 0 -170 0 0 -255z"/>
<path d="M2730 1033 c-24 -54 -72 -163 -107 -243 -36 -80 -67 -151 -70 -158
-4 -10 6 -12 42 -10 47 3 48 3 69 56 l21 52 134 -2 134 -3 20 -52 20 -53 48 0
48 0 -65 148 c-36 81 -86 195 -111 255 l-46 107 -47 0 -48 0 -42 -97z m115
-55 c10 -29 26 -69 35 -88 41 -82 42 -80 -59 -80 -66 0 -91 3 -91 13 0 17 82
207 90 207 3 0 14 -24 25 -52z"/>
<path d="M3355 1106 c-93 -43 -147 -128 -147 -231 -1 -74 18 -121 72 -179 51
-56 114 -81 195 -80 65 1 151 32 181 65 17 19 17 21 -8 46 l-26 26 -30 -21
c-46 -34 -109 -47 -159 -33 -175 48 -186 282 -16 347 54 21 113 13 167 -23
l40 -26 23 28 c29 34 20 48 -52 81 -69 33 -171 33 -240 0z"/>
<path d="M3800 1095 l0 -34 83 -3 82 -3 3 -217 2 -218 40 0 40 0 2 218 3 217
80 5 80 5 3 33 3 32 -210 0 -211 0 0 -35z"/>
<path d="M4486 1114 c-102 -37 -160 -123 -160 -239 0 -157 106 -258 270 -258
144 -1 248 87 269 225 12 77 -16 153 -78 213 -32 31 -68 55 -93 63 -54 16
-159 14 -208 -4z m179 -73 c108 -49 147 -173 84 -266 -75 -108 -230 -112 -303
-6 -68 98 -32 222 79 272 51 23 89 23 140 0z"/>
<path d="M5070 886 c0 -135 0 -249 0 -253 0 -5 18 -9 40 -11 l40 -3 0 75 0 76
74 0 75 0 43 -72 c44 -73 45 -73 91 -76 26 -2 47 0 47 3 0 3 -23 40 -51 81
l-51 76 40 34 c49 41 66 88 60 161 -5 61 -28 98 -79 128 -29 17 -56 21 -181
23 l-148 4 0 -246z m245 164 c73 -17 105 -83 70 -149 -19 -38 -60 -51 -156
-51 l-79 0 0 105 0 105 63 0 c34 0 80 -5 102 -10z"/>
<path d="M5671 1053 c24 -43 67 -120 96 -172 52 -92 53 -95 53 -177 l0 -84 39
0 39 0 3 83 4 82 90 164 c50 91 92 169 93 173 2 4 -16 8 -40 8 l-44 0 -68
-120 c-37 -66 -71 -120 -74 -120 -4 0 -38 54 -76 120 l-68 120 -45 0 -44 0 42
-77z"/>
<path d="M6520 875 l0 -255 40 0 40 0 0 255 0 255 -40 0 -40 0 0 -255z"/>
<path d="M7302 1117 c-45 -14 -118 -81 -144 -131 -34 -64 -31 -165 6 -234 50
-91 128 -135 241 -135 163 0 270 102 270 258 -1 115 -62 204 -166 240 -47 17
-158 18 -207 2z m176 -77 c53 -24 88 -64 103 -115 24 -86 -15 -176 -93 -214
-78 -37 -154 -24 -216 40 -88 91 -57 236 63 290 51 24 89 23 143 -1z"/>
<path d="M575 780 l-179 -179 24 -27 c14 -15 123 -126 244 -247 l218 -219 94
93 c52 52 94 98 94 104 0 5 -60 69 -132 142 l-133 133 83 83 82 82 -108 108
-107 107 -180 -180z"/>
</g>
</svg>
