<?xml version="1.0" standalone="no"?>
<!DOCTYPE svg PUBLIC "-//W3C//DTD SVG 20010904//EN"
 "http://www.w3.org/TR/2001/REC-SVG-20010904/DTD/svg10.dtd">
<svg version="1.0" xmlns="http://www.w3.org/2000/svg"
 width="900.000000pt" height="900.000000pt" viewBox="0 0 900.000000 900.000000"
 preserveAspectRatio="xMidYMid meet">

<g transform="translate(0.000000,900.000000) scale(0.100000,-0.100000)"
fill="#ffffff" stroke="none">
<path d="M2242 5647 l-1142 -1142 1148 -1147 1147 -1148 245 245 245 245 -730
729 c-665 664 -736 731 -795 760 -114 55 -152 61 -402 61 l-228 0 0 249 0 249
31 6 c17 3 123 6 234 6 221 0 285 11 385 68 28 15 323 303 773 751 l727 726
-242 242 c-134 134 -245 243 -248 243 -3 0 -519 -514 -1148 -1143z"/>
<path d="M5442 6547 l-242 -242 732 -731 c550 -548 746 -737 784 -757 91 -48
151 -57 364 -57 107 0 212 -3 233 -6 l37 -7 0 -248 0 -249 -228 0 c-253 0
-300 -7 -406 -62 -52 -27 -172 -142 -791 -760 l-730 -728 240 -240 c132 -132
244 -240 250 -240 13 0 2285 2272 2285 2285 0 10 -2270 2285 -2280 2285 -3 0
-114 -109 -248 -243z"/>
</g>
</svg>
